/* XPM */
static char *result[] = {
/* columns rows colors chars-per-pixel */
"70 70 23 1 ",
"  c #A1B1B1",
". c #A1B1B2",
"X c #A2B2B3",
"o c #A3B3B4",
"O c #A3B4B5",
"+ c #A4B5B6",
"@ c #A5B7B8",
"# c #A6B8B9",
"$ c #A7BABB",
"% c #A9BDBE",
"& c #ABBFC0",
"* c #ACC0C1",
"= c #ADC1C2",
"- c #B1C4C5",
"; c #B3C5C6",
": c #B4C6C7",
"> c #B5C6C7",
", c #B6C7C8",
"< c #B7C8C9",
"1 c #B8C8C9",
"2 c #B9C9CA",
"3 c #BACACB",
"4 c #BBCBCC",
/* pixels */
"**********************************************************************",
"**********************************************************************",
"**********************************************************************",
"**********************************************************************",
"**********************************************************************",
"**********************************************************************",
"**********************************************************************",
"**********************************************************************",
"**********************************************************************",
"**********************************************************************",
"**********************************************************************",
"**********************************************************************",
"**********************************************************************",
"**********************************************************************",
"**********************************************************************",
"**********************************************************************",
"**********************************************************************",
"*************************************%+O    O+%***********************",
"*************************************X        X***********************",
"************************************&          ***********************",
"*************************************          ***********************",
"*********-<<444444<<-****************          ***********************",
"********;444444444444;***************          ***********************",
"********34444444444443***************          ***********************",
"********44444444444444***************          ***********************",
"********44444444444444***************o        O***********************",
"********44444444444444***************%X      X%***********************",
"********44444444444444************************************************",
"********44444444444444************************************************",
"********44444444444444************************************************",
"********44444444444444************************************************",
"********44444444444444************************************************",
"********24444444444442************************************************",
"********;444444444444;************************************************",
"*********:4444444444:*************************************************",
"**********************************************************************",
"**********************************************************************",
"*******%+O    O+%*****************************************************",
"*******X        X*****************************************************",
"******&          *****************************************************",
"*******          *****************************************************",
"*******          *****************************************************",
"*******          ******************************$OO       OO$**********",
"*******          *****************************#             #*********",
"*******          *****************************.             .*********",
"*******o        O*****************************               &********",
"*******%X      X%*****************************               *********",
"**********************************************               *********",
"**********************************************               *********",
"**********************************************               *********",
"********************************:<2444443<>***               *********",
"*******************************<44444444444<**               *********",
"*******************************4444444444444**               *********",
"*******************************4444444444444**               *********",
"*******************************4444444444444**X             X*********",
"*******************************4444444444444**#             #*********",
"*******************************4444444444444***@           @**********",
"*******************************4444444444444**************************",
"*******************************4444444444444**************************",
"*******************************4444444444444**************************",
"*******************************3444444444444**************************",
"*******************************>44444444444,**************************",
"********************************<4444444441=**************************",
"**********************************************************************",
"**********************************************************************",
"**********************************************************************",
"**********************************************************************",
"**********************************************************************",
"**********************************************************************",
"**********************************************************************"
};
