/* XPM */
static char *result[] = {
/* columns rows colors chars-per-pixel */
"70 70 69 1 ",
"  c #DAAE03",
". c #DCAF02",
"X c #DEB102",
"o c #DCB312",
"O c #E0B302",
"+ c #E3B502",
"@ c #E5B702",
"# c #E7B901",
"$ c #EABB01",
"% c #ECBD01",
"& c #EEBE01",
"* c #DEB822",
"= c #E0BD32",
"- c #F1C001",
"; c #F3C200",
": c #F5C400",
"> c #F8C600",
", c #FAC800",
"< c #FCCA00",
"1 c #FFCB00",
"2 c #FFCC00",
"3 c #FECD08",
"4 c #FFCF0F",
"5 c #EEC211",
"6 c #FED018",
"7 c #FFD21F",
"8 c #F1C721",
"9 c #FED220",
"0 c #FFD52F",
"q c #FED530",
"w c #FED638",
"e c #FFD83F",
"r c #E3C242",
"t c #F3CF40",
"y c #F5D140",
"u c #FED840",
"i c #FED948",
"p c #FFDB4F",
"a c #E5C751",
"s c #EACB51",
"d c #ECCC51",
"f c #FEDC58",
"g c #FFDF5F",
"h c #E7CC61",
"j c #ECD061",
"k c #EAD171",
"l c #FEE06B",
"z c #FFE26F",
"x c #FFE57F",
"c c #ECD681",
"v c #EEDB90",
"b c #FEE380",
"n c #FDE480",
"m c #FEE480",
"M c #FEE481",
"N c #FFE88F",
"B c #FFEB9F",
"V c #F1E0A0",
"C c #FFEFAF",
"Z c #F3E5B0",
"A c #F5EAC0",
"S c #F8EFCF",
"D c #FFF5CF",
"F c #FAF4DF",
"G c #FFF8DF",
"H c #FCF9EF",
"J c #FFFBEF",
"K c white",
"L c None",
/* pixels */
"LLLLLLnmmmMMMMMMMMMMMMMMMMMMMMMMMMMMMMMMMMMMMMMMMMMMMMMMMMMMmmmnLLLLLL",
"LLLLbMMMMMMMMMMMMMMMMMMMMMMMMMMMMMMMMMMMMMMMMMMMMMMMMMMMMMMMMMMMMbLLLL",
"LLnMMfw99622222222222222222222222222222222222222222222222222699wfMMnLL",
"LnMu32222222222222222222222222222222222222222222222222222222222223uMnL",
"LMq2222222222222222222222222222222222222222222222222222222222222222qML",
"nw222222222222222222222222222222222222222222222222222222222222222222wn",
"l2222222,%%:2222222222222222222222222222222222222222222222,%%:2222222l",
"i222222%.   @22222222222222222222222222222222222222222222%.   @222222i",
"922222%      %222222222222222222222222222222222222222222%      %222229",
"222222.      .222222222222222222222222222222222222222222.      .222222",
"222222        222222222222222222222222222222222222222222        222222",
"222222X      X222222222222222222222222222222222222222222X      X222222",
"222222;      ;222222222222222222222222222222222222222222;      ;222222",
"2222222:O  .;22222222222222222222222222222222222222222222:O  .;2222222",
"222222222::222222222222222222222222222222222222222222222222::222222222",
"2222222222222222222222222222222222222222222222222222222222222222222222",
"2222222222222222222222222222222222222222222222222222222222222222222222",
"2222222222222222222222222222222222222222222222222222222222222222222222",
"2222222222222222222222222222222222222222222222222222222222222222222222",
"2222222222222222222222222222222222222222222222222222222222222222222222",
"2222222222222222222222222222222222222222222222222222222222222222222222",
"222222222222222222222222222222:$++++++$:222222222222222222222222222222",
"222222222222222222222222222<-.          .-<222222222222222222222222222",
"22222222222222222222222222>O  rvAAAAAAvr  O>22222222222222222222222222",
"2222222222222222222222222,.ohHKKKKKKKKKKHho.,2222222222222222222222222",
"222222222222222222222222<O=SKKKKKKKKKKKKKKS=O<222222222222222222222222",
"222222222222222222222222@*HKKKKKKKKKKKKKKKKH*+222222222222222222222222",
"22222222222222222222222-oSKKKKKKKKKKKKKKKKKKSo;22222222222222222222222",
"22222222222222222222222XZKKKKKKJBxxxxBJKKKKKKZX22222222222222222222222",
"2222222222222222222222-hKKKKKKN422::<24NKKKKKKa;2222222222222222222222",
"2222222222222222222222@FKKKKKx222,  :222xKKKKKF#2222222222222222222222",
"2222222222222222222222jKKKKKC2222%rr52222CKKKKKd2222222222222222222222",
"2222222222222222222222ZKKKKJ422228KKy22224JKKKKV2222222222222222222222",
"2222222222222222222222FKKKKB22222xKKx22222BKKKKS2222222222222222222222",
"2222222222222222222222KKKKKe22222xKKx22222pKKKKK2222222222222222222222",
"2222222222222222222222KKKKKe22222xKKx22222eKKKKK2222222222222222222222",
"2222222222222222222222KKKKKt22222xKKx22222yKKKKK2222222222222222222222",
"2222222222222222222222KKKKKj22222xKKx22222sKKKKK2222222222222222222222",
"2222222222222222222222GKKKKV$2222xKKx2222&vKKKKD2222222222222222222222",
"2222222222222222222222BKKKKHo&222eKKg222&oHKKKKB2222222222222222222222",
"2222222222222222222222gKKKKKv #222zx222# cKKKKKp2222222222222222222222",
"22222222222222222222222JKKKKKk .$::::$. kKKKKKJ22222222222222222222222",
"22222222222222222222222xKKKKKKV        VKKKKKKz22222222222222222222222",
"222222222222222222222222DKKKKKKHvrrrrvHKKKKKKD222222222222222222222222",
"2222222222222222222222227JKKKKKKKKKKKKKKKKKKJ7222222222222222222222222",
"22222222222222222222222220DKKKKKKKKKKKKKKKKD02222222222222222222222222",
"222222222222222222222222224DKKKKKKKKKKKKKKD422222222222222222222222222",
"2222222222222222222222222224zJKKKKKKKKKKJz4222222222222222222222222222",
"222222222222222222222222222222gCJKKKKJCg222222222222222222222222222222",
"2222222222222222222222222222222222222222222222222222222222222222222222",
"2222222222222222222222222222222222222222222222222222222222222222222222",
"2222222222222222222222222222222222222222222222222222222222222222222222",
"2222222222222222222222222222222222222222222222222222222222222222222222",
"2222222222222222222222222222222222222222222222222222222222222222222222",
"2222222222222222222222222222222222222222222222222222222222222222222222",
"2222222222222222222222222222222222222222222222222222222222222222222222",
"22222222,%%:2222222222222222222222222222222222222222222222,%%:22222222",
"2222222%.   @22222222222222222222222222222222222222222222%.   @2222222",
"222222%      %222222222222222222222222222222222222222222%      %222222",
"222222.      .222222222222222222222222222222222222222222.      .222222",
"222222        222222222222222222222222222222222222222222        222222",
"222222X      X222222222222222222222222222222222222222222X      X222222",
"222222;      ;222222222222222222222222222222222222222222;      ;222222",
"2222222:O  .;22222222222222222222222222222222222222222222:O  .;2222222",
"L22222222::222222222222222222222222222222222222222222222222::22222222L",
"L22222222222222222222222222222222222222222222222222222222222222222222L",
"L12222222222222222222222222222222222222222222222222222222222222222221L",
"LL222222222222222222222222222222222222222222222222222222222222222222LL",
"LLLL22222222222222222222222222222222222222222222222222222222222222LLLL",
"LLLLL122222222222222222222222222222222222222222222222222222222221LLLLL"
};
