/* XPM */
static char *result[] = {
/* columns rows colors chars-per-pixel */
"69 71 83 1 ",
"  c #5C9785",
". c #5E9A88",
"X c #619E8B",
"o c #64A18E",
"O c #67A592",
"+ c #6AA895",
"@ c #6DAC98",
"# c #70AF9C",
"$ c #73B39F",
"% c #76B6A2",
"& c #79BAA6",
"* c #7CBDA9",
"= c #6FC3A9",
"- c #6FC4A8",
"; c #6FC4A9",
": c #7FC1AC",
"> c #78C7AE",
", c #82C4B0",
"< c #81CBB3",
"1 c #85C8B3",
"2 c #88CBB6",
"3 c #8ACFB9",
"4 c #8BCFBA",
"5 c #8CCFBB",
"6 c #8CD0BB",
"7 c #8DD0BB",
"8 c #8ED0BC",
"9 c #8FD0BC",
"0 c #8FD1BC",
"q c #90D1BD",
"w c #91D2BD",
"e c #92D2BE",
"r c #93D2BE",
"t c #93D3BE",
"y c #93D2BF",
"u c #94D3BF",
"i c #95D3C0",
"p c #96D3C0",
"a c #96D4C0",
"s c #97D4C1",
"d c #98D4C1",
"f c #98D5C1",
"g c #99D5C2",
"h c #9BD5C3",
"j c #9AD6C3",
"k c #9CD6C3",
"l c #9CD7C4",
"z c #9ED7C5",
"x c #9ED7C6",
"c c #9FD8C5",
"v c #A0D8C6",
"b c #A0D9C6",
"n c #A2D9C8",
"m c #A5DAC9",
"M c #A8DBCB",
"N c #AEDDCE",
"B c #ADDECE",
"V c #AFDECF",
"C c #B1DFD1",
"Z c #B6E1D3",
"A c #B7E1D4",
"S c #BBE4D8",
"D c #BDE4D8",
"F c #C0E5D9",
"G c #C5E7DC",
"H c #C9E8DE",
"J c #CCEAE0",
"K c #D2ECE4",
"L c #D3EDE5",
"P c #DAF0E9",
"I c #DBF0E9",
"U c #E2F3ED",
"Y c #E4F3EE",
"T c #E9F5F1",
"R c #E9F6F2",
"E c #EDF7F4",
"W c #F0F9F6",
"Q c #F5FAF8",
"! c #F6FBF8",
"~ c #F6FBF9",
"^ c #F7FCFA",
"/ c white",
"( c None",
/* pixels */
"((((((((((((((((((((((((((((((/////////////((((((((((((((((((((((((((",
"((((((((((((((((((((((((((/////////////////////((((((((((((((((((((((",
"(((((((((((((((((((((((///////////////////////////(((((((((((((((((((",
"(((((((((((((((((((((///////////////////////////////(((((((((((((((((",
"(((((((((((((((((((//////////////////////////////////((((((((((((((((",
"((((((((((((((((((////////////((((((((((((/////////////((((((((((((((",
"((((((((((((((((///////////(((((((((((((((((((//////////(((((((((((((",
"(((((((((((((((/////////(((((((((((((((((((((((((/////////(((((((((((",
"((((((((((((((////////((((((((((((((((((((((((((((/////////((((((((((",
"(((((((((((((////////((((((((((ze644446euz((((((((((////////(((((((((",
"((((((((((((///////((((((((((644444444444444e((((((((////////((((((((",
"(((((((((((///////((((((((n44444444444444444449((((((((//////((((((((",
"((((((((((///////((((((((e4444444444444444444788p(((((((//////(((((((",
"((((((((((//////((((((((6444444444444444444efjjjjlS((((((//////((((((",
"(((((((((//////(((((((h4444444444444444447fjjjjjjjjB((((((//////(((((",
"((((((((///////((((((d4444444444444444444fjjjjjjjjjjC(((((//////(((((",
"((((((((//////((((((z4444444444444444444sjjjjjjjjjjjjS(((((//////((((",
"(((((((//////(((((((4444444444444444444yjjjjjjjjjjjjjl((((((/////((((",
"(((((((/////(((((((64444444444444444445jjjjjjjjjjjjjjjb(((((//////(((",
"((((((//////((((((u4444444444444444444wjjjjjjjjjjjjjjjjS(((((//////((",
"((((((/////(((((((44444444444444444444ijjjjjjjjjjjjjjjjx(((((//////((",
"(((((//////((((((d44444444444444444444ajjjjjjjjjjjjjjjjjS(((((/////((",
"(((((//////((((((444444444444444444444ajjjjjjjjjjjjjjjjjx(((((//////(",
"(((((/////(((((((444444444444444444444ijjjjjjjjjjjjjjjjjj((((((/////(",
"(((((/////((((((u444444444444444444444qjjjjjjjjjjjjjjjjjgd(((((/////(",
"((((//////((((((64444444444444444444445jjjjjjjjjjjjjjjjju6(((((/////(",
"((((/////(((((((44444444444444444444444ejjjjjjjjjjjjjjjj54(((((//////",
"((((/////((((((n444444444444444444444444sjjjjjjjjjjjjjje44((((((/////",
"((((/////((((((e4444444444444444444444444ajjjjjjjjjjjjy444z(((((/////",
"((((/////((((((444444444444444444444444444ujjjjjjjjjjq4444z(((((/////",
"((((/////((((((44444444444444444444444444440ajjjjjgu744444z(((((/////",
"((((/////(((((h4444444444444444444444444444445888844444444z(((((/////",
"((((/////(((((94444444444444444444444444444444444444444444z(((((/////",
"((((/////(((((44444444444444444444444444444444444444444444((((((/////",
"((((/////(((((44444444444444444444444444444444444444444444((((((/////",
"((((/////((((u444444444444444,:144444444444444444444444446((((((/////",
"((((/////((((64444444444444$X   o,44444444444444444444444d((((((/////",
"((((/////((((4444444444444@       :4444444444444444444444((((((//////",
"((((/////(((z444444444444*        O4444444444444444444444((((((/////(",
"(((((////!(d6444444444444#         ,444444444444444444449((((((/////(",
"(((((////W444444444444444O         :444444442:*$$&244444h((((((/////(",
"(((((/////M44444444444444#         14444444,X     o,4444((((((//////(",
"(((((T////L444444444444441        o44444444X       O4444((((((/////((",
"((((=m////^e44444444444444#       ,4444444%         ,44q((((((/////((",
"(((-;>/////G444444444444444#   X+:44444444@         %44h(((((//////((",
"(((;;;H////^e4444444444444441::44444444444O         $44((((((/////(((",
"((-;;;</////P44444444444444444444444444444%         ,44(((((//////(((",
"((;;;;;H/////M44444444444444444444444444442o       o44e(((((/////((((",
"(=;;;;;(/////^e4444444444444444444444444444,.     .,44h((((//////((((",
"(;;;;;(((/////R444444444444444444444444444441@OO#$14444z((//////(((((",
"=;;;;-(((Q/////L4444444444444444444444444444444444444444h///////(((((",
"=;;;;((((t~/////L44444444444444444&+O&444444444444444444L//////((((((",
";;;;-((((-m//////Ue44444444444444:   .2444444444444444eU//////(((((((",
"-;;;=((((=;A//////Re4444444444444+    :44444444444444gR//////((((((((",
"(;;=(((((;;;H//////RM444444444444@    14444444444444V^//////(((((((((",
"(((((((((;;;;A///////G444444444442+ .*444444444444eJ//////~c(((((((((",
"(((((((((;;;;;m///////UM4444444444444444444444444VW//////~3;(((((((((",
"((((((((=;;;;;;m////////PM444444444444444444444ZR///////E3;;=((((((((",
"((((((((-;;;;;;;3Y////////WZg444444444444444vJ^////////H>;;;=((((((((",
"((((((((;;;;;;;;;>H//////////WLDMMMMMMMMVGP^//////////(-;;;;;((((((((",
"((((((((;;;;;;;;;;;rE////////////////////////////////(((;;;;;((((((((",
"((((((((;;;;;;;;;;;;>N~///////////////////////////I(((((=;;;;((((((((",
"(((((((-;;;;;;;;;;;;;;>mY///////////////////////Hr;(((((-;;;;((((((((",
"(((((((;;;;;;;;;;;=;;;;;;3AY////////////////~Kk>;;;(((((=;;;;((((((((",
"(((((((;;;;;;;;;=((-;;;;;;;;>rAKIIIIIIIIIFm3;;;;;;;(((((;;;;;((((((((",
"(((((((;;;;;;;;;(((((-;;;;;;;;;;;;;;;;;;;;;;;;;;;;;(((((;;;;;((((((((",
"(((((((;;;;;;;;=((((((((-;;;;;;;;;;;;;;;;;;;;;;;;;;(((((;;;;-((((((((",
"((((((-;;;;;;;;;(((((((((((-;;;;;;;;;;;;;;;;;;;;;;;(((((;;;;(((((((((",
"((((((-;;;;;;;;(((((((((((((((((=------;((;;;;;;;;;(((((=;;;(((((((((",
"((((((;;;;;;;;;(((((((((((((((((((((((((((=;;;;;;;-((((((((((((((((((",
"((((((--------((((((((((((((((((((((((((((;-------;(((((((((((((((((("
};
