/* XPM */
static char *_64a1cb27b3e455196fd68ebffb2e54eVQYrKw10lWQBpBBL[] = {
/* columns rows colors chars-per-pixel */
"70 70 69 1 ",
"  c None",
". c #946538",
"X c #966638",
"o c #966639",
"O c #976739",
"+ c #97683A",
"@ c #986839",
"# c #98683A",
"$ c #99683A",
"% c #9A693A",
"& c #9B6A3B",
"* c #9D6B3C",
"= c #9D6C3D",
"- c #9E6C3C",
"; c #9F6C3C",
": c #A06D3D",
"> c #A16E3E",
", c #A2703F",
"< c #A4703F",
"1 c #A57140",
"2 c #A67241",
"3 c #A77442",
"4 c #A87442",
"5 c #AA7543",
"6 c #A97643",
"7 c #AD7540",
"8 c #AE7540",
"9 c #AD7640",
"0 c #AC7641",
"q c #AE7640",
"w c #AF7741",
"e c #AC7845",
"r c #AD7845",
"t c #AD7946",
"y c #AF7946",
"u c #AE7A46",
"i c #B07842",
"p c #B17943",
"a c #B17A44",
"s c #B27B44",
"d c #B07B47",
"f c #B37C45",
"g c #B17C47",
"h c #B47D46",
"j c #B17C48",
"k c #B17D49",
"l c #B27C48",
"z c #B27D49",
"x c #B37E49",
"c c #B47E49",
"v c #B67E48",
"b c #B67F48",
"n c #B77F48",
"m c #B67F49",
"M c #B47F4A",
"N c #B57F4A",
"B c #B78049",
"V c #B6804A",
"C c #B7814B",
"Z c #B8814A",
"A c #B8824B",
"S c #B8824C",
"D c #B9824C",
"F c #BA834C",
"G c #BB834D",
"H c #BA844C",
"J c #BB844C",
"K c #BA844D",
"L c #BB844D",
/* pixels */
"      JJJJJJJJJJJJJJJJJJJJJJJJJJJJJJJJJJJJJJJJJJJJJJJJJJJJJJJJJJ      ",
"    JJJJJJJJJJJJJJJJJJJJJJJJJJJJJJJJJJJJJJJJJJJJJJJJJJJJJJJJJJJJJJ    ",
"  JJJnninp<i8ip<qqqqwwww8wpwqqqqwwwwp<i8qqqqwswwwp8wqqqqw8w8pppnnJJJ  ",
" JJhqqqq<fpp88ppqqqqwww<w8wwqqqq<pw8ww88qqqqw<www<w8qqqq8w8wwww<w<nJJ ",
" Jn<<nqq8wwwii88qqqqs<<s8wqqqqqqqqqqww8wqqqqqqqqw8wqqqqqqqqq8w<pw8wpJ ",
"Ggn<s<qqw8wp<p88qqqqipsnp<8wqqqqqqqqw8w8qqqqqqqw8wwwqqqqqqqqw8ww8w8wnJ",
"n<fniwww8ww<w888qqqiiw<<w8w8qqqqqqqqww8wqqqqqqiww8wwqqqqqqwqw8w8w8wpin",
"g<<<ww<iw88w8w88qqqi<wJ<ww8wqqqqqq8wwww<qqqqqqii8w<wqqqqqq<w8w8w8w8<ip",
"iqw8<w8w<wqqqqqq777w7w<<w777w777qqqq<pwwwww<<p<<p<p<ipn<qqw8qqqqqqqqqq",
"iw<wp8w8wwqqqqqq77w7w7p<<w777w77qqqq<<<swwww<<nw8ii<8p<fqq8wqqqqqqqqqq",
"www8ww8wq8iJnnJJC&..X...%X..oo..XXXXXXXXXX;XX.XX%XXX:nGGJnJwqqqqqqqqqq",
"qw8w8ww8qJJJJJJJGG1.....XX.....oXXXXXXXXXXXXXXXXXXX<JJJJJJJJsqqqqqqqqq",
"qqqq888wnJJJJJJJLLLe::::::::;1;=;;<;;;<;;;;<;;;;;<<JJJJJJJJJJ<iwqqqqqq",
"qqqqp<88JJJJJJJJLLLL5:::::::;;;;;;;;;<;;;;;;<;<<;<JJJJJJJJJJJnwwqqqqqq",
"qqqqiippJJJJJJJJLLJJJg;:::::=11=;;;;;;;;;;;<;<;<nJJJJJJJJJJJJJwwqqqqqq",
"qqqqip<<GJJJJJJJKKJJJJg:::::;;;;;;<;;<;<;;;;;;<<JJJJJJJJJJJJJJqqqqqqqq",
"qqqqqqqqLLLLLLLLLLLLLLLN1;;1;;;;:::::::::::;:1NLJJJJLLLLLLLLLLn<qqqqqq",
"qqqqqqqqLLLLLLLLLLLLLLJGz1;==;1;:::::::::::;1NLLJJGJLLLLLLLLLL<fqqqqqq",
"qqqqqqqqLLKKLLLLLLLLLLKLKN1;1;=;::::::::::;1NGLLJJGGLLLLLLLLJJn<qqqqqq",
"qqqqqqqqLLLKLLLLLLLLLLLLJGG1;;1;::::::::::1GGGLLJJGGLLLLLLLLJJppqqqqqq",
"qqqqqqqqGGGKJJJJLLLLLLLLLLLG1;:::::::::::1GJLLLLJJLLLLLLJJGGJJ<pqqqqqq",
"qqqqqqqqnGJJJJJJLLLLLLLLLLLLGe:;::::::::eGKJLLLLLJLLLLLLJJJJJn8pqqqqqq",
"qqqqqqqqorJJJJJJLLLLLLLLLLKKGGe;::::::;eLLKLLLLLLLLLLLLLJJJJ<%8pqqqqqq",
"qqqqqqqqoodJJJJJLLLLLLLLLLLJJGGd::::::dLLLLLLLLLLLLLLLLLGJJ<:%88qqqqqq",
"qqqqqqqq;XX<JJJJLLLLLLLLLLLLLLLLd:;;;dGKLLLLLLLLLLLLJJJJGG<X.X<<qqqqqq",
"qqqqqqqq<;XX<JJJLLLLLLLLLLLLLLLLLd11dGLKLLLLLLLLLLLGJJJJG<..::n<qqqqqq",
"qqqqqqqq;;;XX:nJLLLLLLLLLLLLLLLLLLNNLLLLLLLLLLLLLLJJJJnn<XX:<<<nqqqqqq",
"qqqqqqqq;;;;XX:nLLLLLLLLLLLLLLLLLLLLLLLLLLLLLLLLLLJJJJn::X:::<p<qqqqqq",
"qqqqqqqq;;;;;XX;CGJKKLLLLLLLLLLLLLLLLLLLLLLLLLJJLLLLJJ:XX;;;::<iqqqqqq",
"qqqqqqqq;<<;;;XXoMJJLLLLLLLLLLLLLLLLLLLLLLLLLLLJLLLL<XX%;<;;::p<qqqqqq",
"qqqqqqqq;;;;<;;X.odGLLLLLLLLLLLLLLLLLLLLLLLLLLGJGGLnXXX;;;;<;<w8qqqqqq",
"qqqqqqqq<;<;;;<;#o.eLLLLLLLLLLLLLLLLLLLLLLLLLLGGGGy$X;;<;;;;<<8wqqqqqq",
"qqqqww<w;;;;;1;11&..tCJJLLLLLLLLLLLLLLLLLLLLLLJKKe..&;;;;;;;1;77qqqqqq",
"qqqqwwsn1*1;;;;=;;&..1JGLLLLLLLLLLLLLLLLLLLLLLJG1..&;1=1;1;1;;77qqqqqq",
"qqqqw8n<*;=1;=;;;;;&..1GLLLLLLLLLLLLLLLLLLKKLGJ1..&=;=;;;1;=::7wqqqqqq",
"qqww<w<n1;;;;1;11=1=&..&GLLLLLLLLLLLLLLLLLLJLG&..&1=;;1;;=;;::w7qqqqqq",
"qqqqi<<<*1*;;1;=;=1;;;ooMJJJLLLLLLLLLLLLKKKGGeoo;;;;=1=1::::::7wqqqqqq",
"qqqq<wn<;;1;;;;;;;;;1=1CGGKKLLLLLLLLLLLLKJKGkkM11;;1;;;;::::::w7qqqqqq",
"qqqqw788;;*;=11=;11;;1GLLLKKLLLLLLLLLLLLJJCkkMGG1;;=;;;;::::::7wqqqqqq",
"qqqq78w21*1;;;;;;=;;eJGLLLLLLLLLLLLLLLLLJCMkMGLLGe;;1;=1::::::w7qqqqqq",
"qqqqqqqq=1;1;;;;;=;eGGGJLLLLLLLLLLLLLLLJCkkzLLLLJG8>::::::::::7wqqqqqq",
"qqqqqqqq;;;;=;1;;1dLGGJJLLLLLLLLLLLLLLLGkkCKLLLLJGGy::::::::::p<qqqqqq",
"qqqqqqqq1;;11;=;;dJLLLKKLLLLLLLLLLLLKLzkkGKLLLLLLLJJp:::::::<<<<qqqqqq",
"qqqqqqqq=;;;;;1;dGKKLLKKLLLLLLLLLLLLKzkMCLLLLLLLLLJJJp:::::::<J<qqqqqq",
"qqqqqqqq;;=;1;1NLLLLLLLLLLLLLLLLLLJGzzMCJKLLLLLLLLLLJJn<<;<;::<<qqqqqq",
"qqqqqqqq;11;;;MLLLLLLLLLLLLLLLLKLLCdzzGLKKLLLLLLLLLLJJJn;;;;::<pqqqqqq",
"qqqqqqqq;=;;=NLLLLLLLLLLLLLLLLKKLN&+dCJKLLLLLLLLLLLLJJJJn<;<<<spqqqqqq",
"qqqqqqqq;;11GGLLLLLLLLLLLLLLLLJJNoo.oMKKLLLLLLLLLLLLJJJJJn<<;<<pqqqqqq",
"qqqqqqqq<;<JJJJJLLLLLLLLLLLLJJJMooo%.oeGLLLLJJJJLLLLLLLLLLG1;;77qqqqqq",
"qqqqqqqq<<JJJJJJLLLLLLLLLLLLJJro.%::%..eLLLLLJJJLLLLLLLLLLGG1177qqqqqq",
"qqqqqqqq<JJJJJJJLLLLLLLLLLLLJr..%:::;%o.yLLLLLJJLLLLLLLLLLLLGe77qqqqqq",
"qqqqqqqqJJJJJJJJLLLLLLLLLLLL1..*::::::%XX2LLLLJJLLLLLLLLLLLLJJ7pqqqqqq",
"qqqqqqqqLLLLJJJJLLLLLJJJLLJ>XX*::::::::*$.:GnJJJLLLLLLLLLLLLJJ77qqqqqq",
"qqqqqqqqLLLLJJJJLLLLLJJJLL:.X*::::::::::*.o;BJJJLLLLLLLLLLLLJJ77qqqqqq",
"qqqqqqqqLLJLJJJJLLLLLLJJJ*.X*::::::::::::*oo:nJJLLLLLLLLLLLLJJp7qqqqqq",
"qqqqqqqqLLJJJJGGLLLLLLnJ:XX:::::::::::::::*XX:JJLLLLLLLLLLLLJJ77qqqqqq",
"qqqqqqwwLLGGGJJJJJJJJJ<:X%;;;;;;::::::::<;;;;XX<JJJJJJJJLLLLLLp7ww8w8w",
"qqqqqww<LLGGGGJJJJJJJJXXX<;;;<;;::::::::;;;;;XXXnJJJJJJJLLLLLL77wpw8w8",
"qqqqqq8wGGJJLLJJJJJJ<@X@;;<;;<;<::::::::;;;;;;;X:<JJJJJJLLLLJZp7w<w8<q",
"qqqqqqw8GGJJLLLLJJJ<:%::<;;;;;;;::::::::<;;<;;;;X:nJJJJJLLLLJh778w8wwq",
"qqqqww8wiJJJLLLLJJiXX;<<;;;<<;;;;<<<::::<<;;;<<<:XX<JJJJJJJJZ<<f88w8<p",
"qqqqwpw8i<nnGJLLJ<%X%<;<;<;;<<;<;<<<::::<<;;;;;<:XXX<JJJJJJn7p<<888wpn",
"8qqqw<8888iif<fpqqqq<<qqi<<<qqwn<<n<<<77<w8w<w<w<n<<qqww<iiwn<n<88i8i8",
"8qqq8w8888p<pn<<qqqqwwqqqiisii<<ps<<B<p7w8w8w8ppp<n<w<wwwwp<ps<n8p<8i8",
" pii<8888w8w<pqqqqqqqqqqqqqqqqqqqqqqqqqqqqqqqqqqqqqqqqqqqqqqqqqqqqqqq ",
" pppp88ww8w8wwqqqqqqqqqqqqqqqqqqqqqqqqqqqqqqqqqqqqqqqqqqqqqqqqqqqqqqq ",
" <n<w8w88w88w8w8qqqqqqqqqqqqqqqqqqqqqqqqqqqqqqqqqqqqqqqqqqqqqqqqqqqw  ",
"  <n8w8ww8w88w8wqqqqqqqqqqqqqqqqqqqqqqqqqqqqqqqqqqqqqqqqqqqqqqqqqqq<  ",
"    8ni<<p88ipf<qqqqqqqqqqqqqqqqqqqqqqqqqqqqqqqqqqqqqqqqqqqqqqqq<n    ",
"     <wpi888i<pnqqqqqqqqqqqqqqqqqqqqqqqqqqqqqqqqqqqqqqqqqqqqqqqq      "
};
